# xmcd CD database file
#
# Track frame offsets:
#	150
#	10787
#	23806
#	38945
#	48893
#	72716
#	83598
#	100102
#	113458
#	128384
#	139851
#	148570
#	159681
#	173115
#
# Disc length: 2497 seconds
#
# Revision: 0
# Processed by: cddbd v1.5.2PL0 Copyright (c) Steve Scherf et al.
# Submitted via: CDex 1.70beta2
#
DISCID=ad09bf0e
DTITLE=Smith, B Harlan - Cdn. - AB - Uptown Country Memories - D2
DYEAR=2008
DGENRE=Country
TTITLE0=Pure Love
TTITLE1=Country Boy
TTITLE2=Lay Lady Lay
TTITLE3=If I Promise
TTITLE4=McArthur Park
TTITLE5=The Most Beautuful Girl In the World
TTITLE6=Queen of the Sliver Dollar
TTITLE7=Rose Coloured Glasases
TTITLE8=Say You'll Stay Until Tomorrow
TTITLE9=To Love Her
TTITLE10=Terrible Tangled Web
TTITLE11=Trip to Heaven
TTITLE12=Woman Sensuous Woman
TTITLE13=Why Me Lord
EXTD=YEAR: 2008
EXTT0=
EXTT1=
EXTT2=
EXTT3=
EXTT4=
EXTT5=
EXTT6=
EXTT7=
EXTT8=
EXTT9=
EXTT10=
EXTT11=
EXTT12=
EXTT13=
PLAYORDER=
